<mxfile host="app.diagrams.net" modified="2023-11-01T10:04:51.104Z" agent="Mozilla/5.0 (Windows NT 10.0; Win64; x64) AppleWebKit/537.36 (KHTML, like Gecko) Chrome/116.0.0.0 Safari/537.36 OPR/102.0.0.0" etag="9riys7YE57STLQgtNu9W" version="22.0.8" type="device">
  <diagram name="Page-1" id="UIpqg4U_9QIZ03rNx28g">
    <mxGraphModel dx="1009" dy="503" grid="0" gridSize="10" guides="1" tooltips="1" connect="1" arrows="1" fold="1" page="1" pageScale="1" pageWidth="1654" pageHeight="2336" math="0" shadow="0">
      <root>
        <mxCell id="0" />
        <mxCell id="1" parent="0" />
        <mxCell id="awHj7oGdUe0wDpQVF1wa-1" value="Image accquisition" style="rounded=0;whiteSpace=wrap;html=1;" vertex="1" parent="1">
          <mxGeometry x="80" y="70" width="120" height="60" as="geometry" />
        </mxCell>
        <mxCell id="awHj7oGdUe0wDpQVF1wa-3" value="Image Extraction" style="rounded=0;whiteSpace=wrap;html=1;" vertex="1" parent="1">
          <mxGeometry x="80" y="170" width="120" height="60" as="geometry" />
        </mxCell>
        <mxCell id="awHj7oGdUe0wDpQVF1wa-4" value="Pre-process Image" style="rounded=0;whiteSpace=wrap;html=1;" vertex="1" parent="1">
          <mxGeometry x="80" y="270" width="120" height="60" as="geometry" />
        </mxCell>
        <mxCell id="awHj7oGdUe0wDpQVF1wa-5" value="Image Enhancement" style="rounded=0;whiteSpace=wrap;html=1;" vertex="1" parent="1">
          <mxGeometry x="80" y="370" width="120" height="60" as="geometry" />
        </mxCell>
        <mxCell id="awHj7oGdUe0wDpQVF1wa-6" value="Localization and Character Segmnetation" style="rounded=0;whiteSpace=wrap;html=1;" vertex="1" parent="1">
          <mxGeometry x="80" y="470" width="120" height="60" as="geometry" />
        </mxCell>
        <mxCell id="awHj7oGdUe0wDpQVF1wa-7" value="Resizing Segments" style="rounded=0;whiteSpace=wrap;html=1;" vertex="1" parent="1">
          <mxGeometry x="80" y="570" width="120" height="60" as="geometry" />
        </mxCell>
        <mxCell id="awHj7oGdUe0wDpQVF1wa-8" value="Character Recognition" style="rounded=0;whiteSpace=wrap;html=1;" vertex="1" parent="1">
          <mxGeometry x="80" y="670" width="120" height="60" as="geometry" />
        </mxCell>
        <mxCell id="awHj7oGdUe0wDpQVF1wa-9" value="Displaying result" style="rounded=0;whiteSpace=wrap;html=1;" vertex="1" parent="1">
          <mxGeometry x="80" y="770" width="120" height="60" as="geometry" />
        </mxCell>
        <mxCell id="awHj7oGdUe0wDpQVF1wa-10" value="" style="endArrow=classic;html=1;rounded=0;exitX=0.5;exitY=1;exitDx=0;exitDy=0;entryX=0.5;entryY=0;entryDx=0;entryDy=0;" edge="1" parent="1" source="awHj7oGdUe0wDpQVF1wa-1" target="awHj7oGdUe0wDpQVF1wa-3">
          <mxGeometry width="50" height="50" relative="1" as="geometry">
            <mxPoint x="490" y="290" as="sourcePoint" />
            <mxPoint x="540" y="240" as="targetPoint" />
          </mxGeometry>
        </mxCell>
        <mxCell id="awHj7oGdUe0wDpQVF1wa-13" value="" style="endArrow=classic;html=1;rounded=0;exitX=0.5;exitY=1;exitDx=0;exitDy=0;entryX=0.5;entryY=0;entryDx=0;entryDy=0;" edge="1" parent="1">
          <mxGeometry width="50" height="50" relative="1" as="geometry">
            <mxPoint x="139.66" y="230" as="sourcePoint" />
            <mxPoint x="139.66" y="270" as="targetPoint" />
          </mxGeometry>
        </mxCell>
        <mxCell id="awHj7oGdUe0wDpQVF1wa-14" value="" style="endArrow=classic;html=1;rounded=0;exitX=0.5;exitY=1;exitDx=0;exitDy=0;entryX=0.5;entryY=0;entryDx=0;entryDy=0;" edge="1" parent="1">
          <mxGeometry width="50" height="50" relative="1" as="geometry">
            <mxPoint x="139.66" y="330" as="sourcePoint" />
            <mxPoint x="139.66" y="370" as="targetPoint" />
          </mxGeometry>
        </mxCell>
        <mxCell id="awHj7oGdUe0wDpQVF1wa-15" value="" style="endArrow=classic;html=1;rounded=0;exitX=0.5;exitY=1;exitDx=0;exitDy=0;entryX=0.5;entryY=0;entryDx=0;entryDy=0;" edge="1" parent="1">
          <mxGeometry width="50" height="50" relative="1" as="geometry">
            <mxPoint x="139.66" y="430" as="sourcePoint" />
            <mxPoint x="139.66" y="470" as="targetPoint" />
          </mxGeometry>
        </mxCell>
        <mxCell id="awHj7oGdUe0wDpQVF1wa-16" value="" style="endArrow=classic;html=1;rounded=0;exitX=0.5;exitY=1;exitDx=0;exitDy=0;entryX=0.5;entryY=0;entryDx=0;entryDy=0;" edge="1" parent="1">
          <mxGeometry width="50" height="50" relative="1" as="geometry">
            <mxPoint x="139.66" y="530" as="sourcePoint" />
            <mxPoint x="139.66" y="570" as="targetPoint" />
          </mxGeometry>
        </mxCell>
        <mxCell id="awHj7oGdUe0wDpQVF1wa-17" value="" style="endArrow=classic;html=1;rounded=0;exitX=0.5;exitY=1;exitDx=0;exitDy=0;entryX=0.5;entryY=0;entryDx=0;entryDy=0;" edge="1" parent="1">
          <mxGeometry width="50" height="50" relative="1" as="geometry">
            <mxPoint x="139.66" y="730" as="sourcePoint" />
            <mxPoint x="139.66" y="770" as="targetPoint" />
          </mxGeometry>
        </mxCell>
        <mxCell id="awHj7oGdUe0wDpQVF1wa-18" value="" style="endArrow=classic;html=1;rounded=0;exitX=0.5;exitY=1;exitDx=0;exitDy=0;entryX=0.5;entryY=0;entryDx=0;entryDy=0;" edge="1" parent="1">
          <mxGeometry width="50" height="50" relative="1" as="geometry">
            <mxPoint x="139.66" y="630" as="sourcePoint" />
            <mxPoint x="139.66" y="670" as="targetPoint" />
          </mxGeometry>
        </mxCell>
      </root>
    </mxGraphModel>
  </diagram>
</mxfile>
